<?xml version="1.0" encoding="utf-8"?>
<svg xmlns="http://www.w3.org/2000/svg" viewBox="0 0 26 26" ><path d="M 11 0 C 9.34375 0 8 1.34375 8 3 L 8 11 L 4.75 11 C 3.339844 11 3.042969 11.226563 4.25 12.4375 L 10.84375 19.03125 C 13.042969 21.230469 13.015625 21.238281 15.21875 19.03125 L 21.78125 12.4375 C 22.988281 11.226563 22.585938 11 21.3125 11 L 18 11 L 18 3 C 18 1.34375 16.65625 0 15 0 Z M 0 19 L 0 23 C 0 24.65625 1.34375 26 3 26 L 23 26 C 24.65625 26 26 24.65625 26 23 L 26 19 L 24 19 L 24 23 C 24 23.550781 23.550781 24 23 24 L 3 24 C 2.449219 24 2 23.550781 2 23 L 2 19 Z" fill="currentColor"/></svg>
