<svg width="16" height="16" viewBox="0 0 16 16" fill="none" xmlns="http://www.w3.org/2000/svg">
<g clip-path="url(#clip0_15_2)">
<path d="M8 0C5.87827 0 3.84344 0.842855 2.34315 2.34315C0.842855 3.84344 0 5.87827 0 8C0 10.1217 0.842855 12.1566 2.34315 13.6569C3.84344 15.1571 5.87827 16 8 16C10.1217 16 12.1566 15.1571 13.6569 13.6569C15.1571 12.1566 16 10.1217 16 8C16 5.87827 15.1571 3.84344 13.6569 2.34315C12.1566 0.842855 10.1217 0 8 0V0ZM4 4H12C12.143 4 12.281 4.031 12.409 4.088L8 9.231L3.591 4.088C3.71943 4.02963 3.85893 3.99961 4 4ZM3 11V5L3.002 4.937L5.934 8.358L3.034 11.258C3.01109 11.1739 2.99966 11.0871 3 11V11ZM12 12H4C3.912 12 3.825 11.988 3.742 11.966L6.588 9.12L8.001 10.768L9.414 9.12L12.26 11.966C12.1759 11.9889 12.0891 12.0003 12.002 12H12ZM13 11C13 11.088 12.988 11.175 12.966 11.258L10.066 8.358L12.998 4.937L13 5V11Z" fill="currentColor"/>
</g>
<defs>
<clipPath id="clip0_15_2">
<rect width="16" height="16" fill="white"/>
</clipPath>
</defs>
</svg>
