<svg width="16" height="16" viewBox="0 0 16 16" fill="none" xmlns="http://www.w3.org/2000/svg">
<path d="M8 0C5.87827 0 3.84344 0.842855 2.34315 2.34315C0.842855 3.84344 0 5.87827 0 8C0 10.1217 0.842855 12.1566 2.34315 13.6569C3.84344 15.1571 5.87827 16 8 16C10.1217 16 12.1566 15.1571 13.6569 13.6569C15.1571 12.1566 16 10.1217 16 8C16 5.87827 15.1571 3.84344 13.6569 2.34315C12.1566 0.842855 10.1217 0 8 0V0ZM11.0756 10.6222C11.0756 11.9289 10.3644 13.5556 7.46667 14.8C7.73333 11.0933 5.22667 11.52 4.62222 10.3556C4.67727 9.87382 4.85269 9.41369 5.1323 9.01757C5.41192 8.62145 5.78674 8.30208 6.22222 8.08889C4.84282 7.85229 3.55638 7.23677 2.50667 6.31111C2.55111 6.72889 2.75467 7.11467 3.07556 7.38667C2.38037 7.12462 1.7797 6.66019 1.35111 6.05333C1.77491 4.65458 2.62251 3.42189 3.77687 2.52547C4.93123 1.62905 6.33542 1.11311 7.79556 1.04889C7.04889 2.27556 6.46222 4.72 7.79556 6C6.42667 6.22222 5.56444 4.44444 4.80889 5.14667C3.80444 6.08889 5.10222 7.37778 7.84889 7.88444C10.7733 8.40889 11.1022 9.28889 11.0756 10.6222V10.6222ZM12.2667 7.06667C11.9822 6.08 12.8178 5.08444 13.7689 4.27556C14.3629 5.13175 14.741 6.11889 14.871 7.1528C15.001 8.18672 14.8791 9.23674 14.5156 10.2133C13.8311 8.53333 12.5867 8.15111 12.2667 7.04V7.06667V7.06667Z" fill="#222222"/>
</svg>
