<svg width="16" height="16" viewBox="0 0 16 16" fill="none" xmlns="http://www.w3.org/2000/svg">
<path d="M7.99999 3.89L7.84349 3.9375L1.59349 6.0315L0.172485 6.5L0.999985 6.765V11.14C0.701485 11.3135 0.499985 11.63 0.499985 12C0.499985 12.2652 0.605342 12.5196 0.792879 12.7071C0.980415 12.8946 1.23477 13 1.49999 13C1.7652 13 2.01956 12.8946 2.20709 12.7071C2.39463 12.5196 2.49999 12.2652 2.49999 12C2.49999 11.63 2.29849 11.3135 1.99999 11.14V7.11L2.99999 7.4375V10C2.99999 10.41 3.24999 10.75 3.54699 10.985C3.84399 11.2185 4.21299 11.3835 4.65599 11.5315C5.54299 11.8265 6.71199 12 7.99999 12C9.28798 12 10.457 11.827 11.344 11.531C11.787 11.3835 12.156 11.2185 12.453 10.9845C12.75 10.75 13 10.41 13 10V7.4375L14.4065 6.9685L15.8275 6.5L14.406 6.031L8.15599 3.9375L7.99999 3.89ZM7.99999 4.9375L12.6875 6.5L7.99999 8.0625L3.31249 6.5L7.99999 4.9375ZM3.99999 7.7815L7.84399 9.0625L7.99999 9.1095L8.15649 9.062L12 7.781V10C12 10.005 12.002 10.063 11.8435 10.1875C11.6855 10.3125 11.402 10.47 11.031 10.594C10.29 10.8405 9.19748 11 7.99999 11C6.80249 11 5.70999 10.841 4.96849 10.5935C4.59849 10.47 4.31449 10.312 4.15649 10.1875C3.99749 10.0625 3.99999 10.005 3.99999 10V7.781V7.7815Z" fill="black"/>
</svg>
