<svg xmlns="http://www.w3.org/2000/svg" xmlns:xlink="http://www.w3.org/1999/xlink" width="329" height="448" viewBox="0 0 329 448"><defs><clipPath id="a"><circle cx="143" cy="143" r="143" transform="translate(114 114)" fill="#0cf"/></clipPath></defs><g transform="translate(-659 -754)"><path d="M233-174H96a18.876,18.876,0,0,1-13.435-5.565A18.876,18.876,0,0,1,77-193v-66.176a165.382,165.382,0,0,1-31.547-25.8,165.168,165.168,0,0,1-24.3-32.771A163.635,163.635,0,0,1,5.526-356.063,164.992,164.992,0,0,1,0-398.5a164.99,164.99,0,0,1,5.526-42.437,163.636,163.636,0,0,1,15.627-38.318,165.169,165.169,0,0,1,24.3-32.772A165.38,165.38,0,0,1,77-537.825V-603a18.876,18.876,0,0,1,5.565-13.435A18.875,18.875,0,0,1,96-622H233a18.875,18.875,0,0,1,13.435,5.565A18.876,18.876,0,0,1,252-603v65.176a165.375,165.375,0,0,1,31.547,25.8,165.158,165.158,0,0,1,24.3,32.771,163.633,163.633,0,0,1,15.627,38.318A164.988,164.988,0,0,1,329-398.5a164.99,164.99,0,0,1-5.526,42.437,163.63,163.63,0,0,1-15.627,38.318,165.165,165.165,0,0,1-24.3,32.771A165.372,165.372,0,0,1,252-259.177V-193a18.876,18.876,0,0,1-5.565,13.435A18.876,18.876,0,0,1,233-174ZM165-541C86.149-541,22-476.85,22-398s64.15,143,143,143,143-64.15,143-143S243.85-541,165-541Z" transform="translate(659 1376)" fill="#435253"/><g transform="translate(567 721)" clip-path="url(#a)"><g transform="translate(138 183)"><rect width="236" height="352" rx="20" fill="#fff"/><rect width="178.394" height="38.905" rx="8" transform="translate(26.945 39.832)" fill="#1caeec"/><g transform="translate(27.874 109.692)"><rect width="89.334" height="17.403" rx="8" transform="translate(0 0)" fill="#b8b8b8"/><rect width="109.871" height="17.403" rx="8" transform="translate(0 27.64)" fill="#b8b8b8"/><rect width="66.744" height="17.403" rx="8" transform="translate(97.549 0)" fill="#b8b8b8"/><rect width="64.69" height="17.403" rx="8" transform="translate(0 55.281)" fill="#b8b8b8"/><rect width="64.69" height="17.403" rx="8" transform="translate(73.665 55.281)" fill="#b8b8b8"/><rect width="64.69" height="17.403" rx="8" transform="translate(0 110.561)" fill="#b8b8b8"/><rect width="89.334" height="17.403" rx="8" transform="translate(0 82.921)" fill="#b8b8b8"/></g></g></g></g></svg>