<?xml version="1.0" standalone="no"?>
<!DOCTYPE svg PUBLIC "-//W3C//DTD SVG 20010904//EN"
 "http://www.w3.org/TR/2001/REC-SVG-20010904/DTD/svg10.dtd">
<svg version="1.0" xmlns="http://www.w3.org/2000/svg"
 width="288.000000pt" height="288.000000pt" viewBox="0 0 288.000000 288.000000"
 preserveAspectRatio="xMidYMid meet">
<metadata>
Created by potrace 1.11, written by Peter Selinger 2001-2013
</metadata>
<g transform="translate(0.000000,288.000000) scale(0.100000,-0.100000)"
fill="#000000" stroke="none">
<path d="M1158 2860 c-514 -108 -928 -479 -1086 -970 -53 -164 -66 -257 -66
-445 0 -188 13 -281 66 -445 140 -438 491 -788 931 -929 161 -51 254 -65 442
-65 188 0 281 13 445 66 498 160 876 589 974 1107 22 114 22 418 0 532 -110
583 -570 1043 -1153 1153 -121 23 -436 21 -553 -4z m-233 -944 c38 -16 57 -62
44 -106 -4 -14 -73 -170 -153 -348 -80 -178 -146 -325 -146 -328 0 -2 56 -4
124 -4 115 0 127 -2 150 -22 15 -13 29 -37 32 -54 5 -26 0 -38 -24 -65 l-30
-34 -217 0 -217 0 -24 28 c-13 15 -24 40 -24 55 0 26 357 829 382 859 11 14
43 31 61 32 4 1 23 -5 42 -13z m1491 -19 c13 -15 24 -40 24 -55 0 -26 -357
-829 -382 -859 -32 -39 -116 -34 -138 7 -24 45 -9 89 140 419 83 183 150 334
150 336 0 3 -56 5 -124 5 -108 0 -126 2 -149 20 -51 40 -42 115 16 144 27 14
66 16 235 14 l204 -3 24 -28z m-553 -249 c33 -17 46 -39 46 -78 0 -39 -13 -61
-46 -78 -15 -9 -139 -12 -432 -12 l-409 0 -31 26 c-48 40 -41 110 14 142 28
16 828 17 858 0z m0 -260 c32 -17 46 -39 47 -75 1 -93 3 -93 -479 -93 l-409 0
-31 26 c-25 20 -31 34 -31 64 0 30 6 44 31 64 l31 26 409 0 c293 0 417 -3 432
-12z"/>
</g>
</svg>
