<?xml version="1.0" encoding="UTF-8" standalone="no"?><!DOCTYPE svg PUBLIC "-//W3C//DTD SVG 1.1//EN" "http://www.w3.org/Graphics/SVG/1.1/DTD/svg11.dtd"><svg width="100%" height="100%" viewBox="0 0 600 600" version="1.1" xmlns="http://www.w3.org/2000/svg" xmlns:xlink="http://www.w3.org/1999/xlink" xml:space="preserve" xmlns:serif="http://www.serif.com/" style="fill-rule:evenodd;clip-rule:evenodd;stroke-linejoin:round;stroke-miterlimit:2;"><g id="light" transform="matrix(11.0208,0,0,11.0208,301.584,299.755)"><g transform="matrix(1,0,0,1,-24,-24)"><path d="M30,38L18,38L18,40.4C18,43.714 20.686,46.4 24,46.4C27.314,46.4 30,43.714 30,40.4L30,38Z" style="fill:url(#_Radial1);fill-rule:nonzero;"/><path d="M36,21C36,14.373 30.627,9 24,9C17.373,9 12,14.373 12,21C12,28 18,33 18,36.8L18,38L30,38L30,36.8C30,33 36,28 36,21Z" style="fill:url(#_Linear2);fill-rule:nonzero;"/><circle cx="43" cy="21" r="2" style="fill:url(#_Linear3);"/><circle cx="5" cy="21" r="2" style="fill:url(#_Linear4);"/><circle cx="24" cy="2" r="2" style="fill:url(#_Linear5);"/><circle cx="37.435" cy="34.435" r="2" style="fill:url(#_Linear6);"/><circle cx="10.565" cy="7.565" r="2" style="fill:url(#_Linear7);"/><circle cx="10.565" cy="34.435" r="2" style="fill:url(#_Linear8);"/><circle cx="37.435" cy="7.565" r="2" style="fill:url(#_Linear9);"/></g></g><g id="bt" transform="matrix(2.41,0,0,2.41,300.031,287.314)"><g transform="matrix(1,0,0,1,-50,-50)"><g transform="matrix(4.16667,0,0,4.16667,0,0)"><path d="M12.033,2C12.022,2 12.011,1.999 12,1.999C11.451,1.999 11,2.451 11,3C11,3 11,9.42 11,9.42L7.689,6.275C7.496,6.086 7.234,5.983 6.963,5.99C6.424,6.004 5.989,6.451 5.989,6.99C5.989,7.269 6.106,7.535 6.311,7.725L10.811,12L6.311,16.275C6.112,16.464 6,16.726 6,17C6,17.549 6.451,18 7,18C7.256,18 7.504,17.902 7.689,17.725L11,14.58L11,21C11,21 11,21.001 11,21.001C11,21.55 11.451,22.002 12,22.002C12.247,22.002 12.486,21.91 12.67,21.744L17.67,17.244C17.881,17.055 18.001,16.784 18.001,16.501C18.001,16.227 17.888,15.964 17.689,15.775L13.715,12L17.689,8.225C17.888,8.036 18.001,7.773 18.001,7.499C18.001,7.216 17.881,6.945 17.67,6.756L12.67,2.256C12.495,2.098 12.269,2.008 12.033,2ZM13,5.246L15.525,7.521L13,9.92L13,5.246ZM13,14.08L15.525,16.479L13,18.754L13,14.08Z" style="fill:#cda425;fill-rule:nonzero;"/></g></g></g><defs><radialGradient id="_Radial1" cx="0" cy="0" r="1" gradientUnits="userSpaceOnUse" gradientTransform="matrix(12.079,0,0,12.079,21.212,37.355)"><stop offset="0" style="stop-color:#6e757b;stop-opacity:1"/><stop offset="1" style="stop-color:#4a4e52;stop-opacity:1"/></radialGradient><linearGradient id="_Linear2" x1="0" y1="0" x2="1" y2="0" gradientUnits="userSpaceOnUse" gradientTransform="matrix(9.926,31.046,-31.046,9.926,20.26,9.37)"><stop offset="0" style="stop-color:#ffda1c;stop-opacity:1"/><stop offset="1" style="stop-color:#feb705;stop-opacity:1"/></linearGradient><linearGradient id="_Linear3" x1="0" y1="0" x2="1" y2="0" gradientUnits="userSpaceOnUse" gradientTransform="matrix(17.487,43.357,-43.357,17.487,31.627,-7.197)"><stop offset="0" style="stop-color:#ffda1c;stop-opacity:1"/><stop offset="1" style="stop-color:#feb705;stop-opacity:1"/></linearGradient><linearGradient id="_Linear4" x1="0" y1="0" x2="1" y2="0" gradientUnits="userSpaceOnUse" gradientTransform="matrix(17.487,43.357,-43.357,17.487,-1.056,5.985)"><stop offset="0" style="stop-color:#ffda1c;stop-opacity:1"/><stop offset="1" style="stop-color:#feb705;stop-opacity:1"/></linearGradient><linearGradient id="_Linear5" x1="0" y1="0" x2="1" y2="0" gradientUnits="userSpaceOnUse" gradientTransform="matrix(17.487,43.357,-43.357,17.487,21.877,-3.264)"><stop offset="0" style="stop-color:#ffda1c;stop-opacity:1"/><stop offset="1" style="stop-color:#feb705;stop-opacity:1"/></linearGradient><linearGradient id="_Linear6" x1="0" y1="0" x2="1" y2="0" gradientUnits="userSpaceOnUse" gradientTransform="matrix(17.487,43.357,-43.357,17.487,22.18,-3.387)"><stop offset="0" style="stop-color:#ffda1c;stop-opacity:1"/><stop offset="1" style="stop-color:#feb705;stop-opacity:1"/></linearGradient><linearGradient id="_Linear7" x1="0" y1="0" x2="1" y2="0" gradientUnits="userSpaceOnUse" gradientTransform="matrix(17.487,43.357,-43.357,17.487,8.391,2.175)"><stop offset="0" style="stop-color:#ffda1c;stop-opacity:1"/><stop offset="1" style="stop-color:#feb705;stop-opacity:1"/></linearGradient><linearGradient id="_Linear8" x1="0" y1="0" x2="1" y2="0" gradientUnits="userSpaceOnUse" gradientTransform="matrix(17.487,43.357,-43.357,17.487,-0.93,5.934)"><stop offset="0" style="stop-color:#ffda1c;stop-opacity:1"/><stop offset="1" style="stop-color:#feb705;stop-opacity:1"/></linearGradient><linearGradient id="_Linear9" x1="0" y1="0" x2="1" y2="0" gradientUnits="userSpaceOnUse" gradientTransform="matrix(17.488,43.357,-43.357,17.488,31.501,-7.146)"><stop offset="0" style="stop-color:#ffda1c;stop-opacity:1"/><stop offset="1" style="stop-color:#feb705;stop-opacity:1"/></linearGradient></defs></svg>