<svg xmlns="http://www.w3.org/2000/svg" xmlns:xlink="http://www.w3.org/1999/xlink" width="600" height="600" viewBox="0 0 600 600"><defs><clipPath id="a"><circle cx="161" cy="161" r="161" transform="translate(-0.084 -0.021)" fill="#0cf"/></clipPath><clipPath id="c"><rect width="600" height="600"/></clipPath></defs><g id="b" clip-path="url(#c)"><g transform="translate(-543.682 -706.163)"><path d="M264.4,504H105.6a19,19,0,0,1-19-19V408.176a185.955,185.955,0,0,1-62.807-65.89A184.944,184.944,0,0,1,51.117,123.72,186,186,0,0,1,86.6,94.7V19a19,19,0,0,1,19-19H264.4a19,19,0,0,1,19,19V94.7a185.957,185.957,0,0,1,62.807,65.89,184.943,184.943,0,0,1-27.329,218.566A186,186,0,0,1,283.4,408.176V485a19,19,0,0,1-19,19ZM185.562,91.125c-88.676,0-160.82,72.168-160.82,160.875s72.144,160.875,160.82,160.875S346.382,340.707,346.382,252,274.239,91.125,185.562,91.125Z" transform="translate(658.682 754.163)" fill="#435253"/><g transform="translate(683.766 845.184)" clip-path="url(#a)"><g transform="translate(26.916 77.979)"><rect width="266" height="396" rx="20" transform="translate(0 0)" fill="#fff"/><rect width="200.823" height="43.797" rx="8" transform="translate(30.333 44.839)" fill="#1caeec"/><g transform="translate(31.379 123.483)"><rect width="100.566" height="19.591" rx="8" transform="translate(0 0)" fill="#b8b8b8"/><rect width="123.684" height="19.591" rx="8" transform="translate(0 31.115)" fill="#b8b8b8"/><rect width="75.135" height="19.591" rx="8" transform="translate(109.813 0)" fill="#b8b8b8"/><rect width="72.823" height="19.591" rx="8" transform="translate(0 62.231)" fill="#b8b8b8"/><rect width="72.823" height="19.591" rx="8" transform="translate(82.926 62.231)" fill="#b8b8b8"/><rect width="72.823" height="19.591" rx="8" transform="translate(0 124.462)" fill="#b8b8b8"/><rect width="100.566" height="19.591" rx="8" transform="translate(0 93.346)" fill="#b8b8b8"/></g></g></g></g></g></svg>
